<svg id="Layer_1" enable-background="new 0 0 511.999 511.999" height="512" viewBox="0 0 511.999 511.999" width="512" xmlns="http://www.w3.org/2000/svg"><g><path d="m466 57h-37v-42c0-8.284-6.716-15-15-15h-316c-8.284 0-15 6.716-15 15v42h-37c-16.542 0-30 13.458-30 30v316c0 16.542 13.458 30 30 30h121.039c-4.082 16.333-8.166 32.666-12.251 48.999h-14.679c-8.284 0-15 6.716-15 15s6.716 15 15 15h237.781c8.284 0 15-6.716 15-15s-6.716-15-15-15h-14.678c-3.992-15.961-7.982-31.923-11.971-47.886l-.278-1.113h115.037c16.542 0 30-13.458 30-30v-316c0-16.542-13.458-30-30-30zm0 30v256h-37v-256zm-353-57h286v313h-286zm-30 57v256h-37v-256zm239.135 354.386c3.383 13.538 6.766 27.075 10.15 40.613h-146.571c4.085-16.333 8.167-32.666 12.249-48.999h122.077zm-276.135-38.386v-30h52 316 52v30z"/><path d="m158 252.999h15c8.284 0 15-6.716 15-15s-6.716-15-15-15h-15c-8.284 0-15 6.716-15 15s6.715 15 15 15z"/><path d="m218 237.999c0 8.284 6.716 15 15 15h120.997c8.284 0 15-6.716 15-15s-6.716-15-15-15h-120.997c-8.285 0-15 6.716-15 15z"/><path d="m158 312.999h15c8.284 0 15-6.716 15-15s-6.716-15-15-15h-15c-8.284 0-15 6.716-15 15s6.715 15 15 15z"/><path d="m353.997 282.999h-120.997c-8.284 0-15 6.716-15 15s6.716 15 15 15h120.997c8.284 0 15-6.716 15-15s-6.716-15-15-15z"/><path d="m248.5 172.908c2.32 1.34 4.91 2.01 7.5 2.01s5.18-.67 7.5-2.01c15.253-8.807 57.127-42.293 57.127-72.267 0-22.409-18.231-40.641-40.641-40.641-8.784 0-17.151 2.886-23.986 7.886-6.836-5-15.203-7.886-23.986-7.886-22.41 0-40.642 18.231-40.642 40.641 0 13.278 8.226 28.216 25.146 45.667 11.637 12.003 25.163 22.663 31.982 26.6zm-16.487-82.908c4.399 0 8.401 2.763 9.958 6.876 2.208 5.832 7.793 9.69 14.029 9.689 6.235 0 11.82-3.858 14.028-9.691 1.556-4.112 5.558-6.875 9.957-6.875 5.867 0 10.641 4.773 10.641 10.641 0 3.685-3.949 12.16-15.077 23.915-6.209 6.558-13.36 12.71-19.339 17.171-5.084-3.977-11.799-9.746-18.154-16.301-13.197-13.612-16.685-22.164-16.685-24.785.001-5.867 4.774-10.64 10.642-10.64z"/></g></svg>